<svg xmlns="http://www.w3.org/2000/svg" viewBox="0 0 2037 403.33"><defs><style>.a{fill:#9a1712;}.b{fill:none;}</style></defs><path class="a" d="M0,117.33S122.21,93.65,356.63,221.92s252.75-60,599.09,17.61,285.43,156.78,601.76,104.1S2037,377.78,2037,377.78v17.55H0Z"/><path class="b" d="M0,125.33s115.19-23.68,336.14,104.59,238.23-60,564.69,17.61,269,156.78,567.2,104.1,452,34.15,452,34.15v17.55H0Z"/><circle class="a" cx="492.96" cy="197.91" r="25.96"/><path d="M499.67,211.33A21.53,21.53,0,1,1,521.2,189.8h0a21.53,21.53,0,0,1-21.53,21.53m0,7.38a28.91,28.91,0,1,0-28.91-28.91,28.91,28.91,0,0,0,28.91,28.91Z"/><circle class="a" cx="766.92" cy="25.97" r="25.97"/><path d="M754,33.61a21.54,21.54,0,1,1,23,20h0a21.55,21.55,0,0,1-23-20m-7.36.51A28.92,28.92,0,1,0,773.46,3.25a28.93,28.93,0,0,0-26.82,30.87Z"/><circle class="a" cx="955.96" cy="156.91" r="25.96"/><path d="M940.17,177.75a14.46,14.46,0,1,1,14.45-14.45,14.45,14.45,0,0,1-14.45,14.45h0m0,4.95a19.41,19.41,0,1,0-19.41-19.4h0a19.41,19.41,0,0,0,19.41,19.41h0Z"/><circle class="a" cx="337.96" cy="338.91" r="25.96"/><path d="M344.67,352.33A21.53,21.53,0,1,1,366.2,330.8h0a21.53,21.53,0,0,1-21.53,21.53m0,7.38a28.91,28.91,0,1,0-28.91-28.91,28.91,28.91,0,0,0,28.91,28.91Z"/><circle class="a" cx="1215.96" cy="306.91" r="25.96"/><path d="M1222.67,320.33a21.53,21.53,0,1,1,21.53-21.53h0a21.53,21.53,0,0,1-21.53,21.53m0,7.38a28.91,28.91,0,1,0-28.91-28.91,28.91,28.91,0,0,0,28.91,28.91Z"/><circle class="a" cx="601.96" cy="352.91" r="25.96"/><path d="M592.17,370.67a8.88,8.88,0,1,1,9.24-8.87,9.06,9.06,0,0,1-9.24,8.87m0,3a11.92,11.92,0,1,0-12.41-11.91,12.17,12.17,0,0,0,12.41,11.91Z"/><circle class="a" cx="679.96" cy="292.91" r="25.96"/><path d="M678.17,308.5a15.2,15.2,0,1,1,15.2-15.2,15.19,15.19,0,0,1-15.2,15.2h0m0,5.21a20.41,20.41,0,1,0-20.41-20.41h0A20.41,20.41,0,0,0,678.17,313.71Z"/><circle class="a" cx="665.96" cy="306.91" r="25.96"/><path d="M664.17,322.5a15.2,15.2,0,1,1,15.2-15.2,15.19,15.19,0,0,1-15.2,15.2h0m0,5.21a20.41,20.41,0,1,0-20.41-20.41h0A20.41,20.41,0,0,0,664.17,327.71Z"/><path d="M476.67,321a10.74,10.74,0,1,1,11.09-10.73A10.93,10.93,0,0,1,476.67,321m0,3.68a14.42,14.42,0,1,0-14.9-14.41,14.66,14.66,0,0,0,14.9,14.41Z"/><path d="M869.67,327a10.74,10.74,0,1,1,11.09-10.73A10.93,10.93,0,0,1,869.67,327m0,3.68a14.42,14.42,0,1,0-14.9-14.41,14.66,14.66,0,0,0,14.9,14.41Z"/><circle class="a" cx="895.96" cy="292.91" r="25.96"/><path d="M886.17,310.67a8.88,8.88,0,1,1,9.24-8.87,9.06,9.06,0,0,1-9.24,8.87m0,3a11.92,11.92,0,1,0-12.41-11.91,12.17,12.17,0,0,0,12.41,11.91Z"/><path d="M1151.17,384.67a8.88,8.88,0,1,1,9.24-8.87,9.06,9.06,0,0,1-9.24,8.87m0,3a11.92,11.92,0,1,0-12.41-11.91,12.17,12.17,0,0,0,12.41,11.91Z"/><path d="M1581.17,379.67a8.88,8.88,0,1,1,9.24-8.87,9.06,9.06,0,0,1-9.24,8.87m0,3a11.92,11.92,0,1,0-12.41-11.91,12.17,12.17,0,0,0,12.41,11.91Z"/><path d="M1753.34,336.06c-56.9,0-122.24,5-195.86,17.94C1486.14,366.55,1434,372,1392,372c-144.1,0-168.06-64.51-436.3-128-63.19-15-115.43-20.58-160.08-20.58-134.19,0-199.65,50.72-286,50.72-42.41,0-89.88-12.24-153-48.75C185.42,126.37,74.06,113,26.46,113,8.89,113,0,114.84,0,114.84v5.88H14.75c3.3-.18,7.21-.3,11.71-.3,50,0,158.9,14.47,326.44,111.34,58.7,33.95,108.51,49.76,156.75,49.76,39.5,0,75.15-10.44,112.89-21.5,46.74-13.69,99.71-29.21,173.1-29.22,48.66,0,100.47,6.67,158.37,20.38,126.49,30,197.39,59.71,254.36,83.61,61.73,25.92,106.33,44.63,183.65,44.63,43.46,0,96.44-5.76,166.75-18.14,67.17-11.82,132.63-17.81,194.57-17.82,162.87,0,256.8,41.57,276.23,51.14v.73H2037v-5.24S1940.94,336.06,1753.34,336.06Z"/></svg>