<svg xmlns="http://www.w3.org/2000/svg" width="1993.572" height="291.738" viewBox="0 0 1993.572 291.738">
  <g id="Group_5" data-name="Group 5" transform="translate(40 -3349.802)">
    <g id="SmallBubble" transform="translate(3 3578.567)">
      <circle id="Ellipse_1" data-name="Ellipse 1" cx="25.956" cy="25.956" r="25.956" transform="translate(9.66)" fill="#9a1712"/>
      <path id="Path_185" data-name="Path 185" d="M28.906,8.074A21.532,21.532,0,1,1,7.374,29.606,21.532,21.532,0,0,1,28.906,8.074m0-7.374A28.906,28.906,0,1,0,57.812,29.606,28.906,28.906,0,0,0,28.906.7Z" transform="translate(0 4.462)"/>
    </g>
    <g id="SmallBubble-2" data-name="SmallBubble" transform="translate(95 3578.567)">
      <circle id="Ellipse_1-2" data-name="Ellipse 1" cx="25.956" cy="25.956" r="25.956" transform="translate(9.66)" fill="#9a1712"/>
      <path id="Path_185-2" data-name="Path 185" d="M28.906,8.074A21.532,21.532,0,1,1,7.374,29.606,21.532,21.532,0,0,1,28.906,8.074m0-7.374A28.906,28.906,0,1,0,57.812,29.606,28.906,28.906,0,0,0,28.906.7Z" transform="translate(0 4.462)"/>
    </g>
    <g id="SmallBubble-3" data-name="SmallBubble" transform="translate(187 3578.567)">
      <circle id="Ellipse_1-3" data-name="Ellipse 1" cx="25.956" cy="25.956" r="25.956" transform="translate(9.66)" fill="#9a1712"/>
      <path id="Path_185-3" data-name="Path 185" d="M28.906,8.074A21.532,21.532,0,1,1,7.374,29.606,21.532,21.532,0,0,1,28.906,8.074m0-7.374A28.906,28.906,0,1,0,57.812,29.606,28.906,28.906,0,0,0,28.906.7Z" transform="translate(0 4.462)"/>
    </g>
    <g id="SmallBubble-4" data-name="SmallBubble" transform="translate(279 3578.567)">
      <circle id="Ellipse_1-4" data-name="Ellipse 1" cx="25.956" cy="25.956" r="25.956" transform="translate(9.66)" fill="#9a1712"/>
      <path id="Path_185-4" data-name="Path 185" d="M28.906,8.074A21.532,21.532,0,1,1,7.374,29.606,21.532,21.532,0,0,1,28.906,8.074m0-7.374A28.906,28.906,0,1,0,57.812,29.606,28.906,28.906,0,0,0,28.906.7Z" transform="translate(0 4.462)"/>
    </g>
    <g id="SmallBubble-5" data-name="SmallBubble" transform="translate(371 3578.567)">
      <circle id="Ellipse_1-5" data-name="Ellipse 1" cx="25.956" cy="25.956" r="25.956" transform="translate(9.66)" fill="#9a1712"/>
      <path id="Path_185-5" data-name="Path 185" d="M28.906,8.074A21.532,21.532,0,1,1,7.374,29.606,21.532,21.532,0,0,1,28.906,8.074m0-7.374A28.906,28.906,0,1,0,57.812,29.606,28.906,28.906,0,0,0,28.906.7Z" transform="translate(0 4.462)"/>
    </g>
    <g id="SmallBubble-6" data-name="SmallBubble" transform="translate(463 3578.567)">
      <circle id="Ellipse_1-6" data-name="Ellipse 1" cx="25.956" cy="25.956" r="25.956" transform="translate(9.66)" fill="#9a1712"/>
      <path id="Path_185-6" data-name="Path 185" d="M28.906,8.074A21.532,21.532,0,1,1,7.374,29.606,21.532,21.532,0,0,1,28.906,8.074m0-7.374A28.906,28.906,0,1,0,57.812,29.606,28.906,28.906,0,0,0,28.906.7Z" transform="translate(0 4.462)"/>
    </g>
    <g id="SmallBubble-7" data-name="SmallBubble" transform="translate(555 3578.567)">
      <circle id="Ellipse_1-7" data-name="Ellipse 1" cx="25.956" cy="25.956" r="25.956" transform="translate(9.66)" fill="#9a1712"/>
      <path id="Path_185-7" data-name="Path 185" d="M28.906,8.074A21.532,21.532,0,1,1,7.374,29.606,21.532,21.532,0,0,1,28.906,8.074m0-7.374A28.906,28.906,0,1,0,57.812,29.606,28.906,28.906,0,0,0,28.906.7Z" transform="translate(0 4.462)"/>
    </g>
    <g id="SmallBubble-8" data-name="SmallBubble" transform="translate(647 3578.567)">
      <circle id="Ellipse_1-8" data-name="Ellipse 1" cx="25.956" cy="25.956" r="25.956" transform="translate(9.66)" fill="#9a1712"/>
      <path id="Path_185-8" data-name="Path 185" d="M28.906,8.074A21.532,21.532,0,1,1,7.374,29.606,21.532,21.532,0,0,1,28.906,8.074m0-7.374A28.906,28.906,0,1,0,57.812,29.606,28.906,28.906,0,0,0,28.906.7Z" transform="translate(0 4.462)"/>
    </g>
    <g id="SmallBubble-9" data-name="SmallBubble" transform="translate(739 3578.567)">
      <circle id="Ellipse_1-9" data-name="Ellipse 1" cx="25.956" cy="25.956" r="25.956" transform="translate(9.66)" fill="#9a1712"/>
      <path id="Path_185-9" data-name="Path 185" d="M28.906,8.074A21.532,21.532,0,1,1,7.374,29.606,21.532,21.532,0,0,1,28.906,8.074m0-7.374A28.906,28.906,0,1,0,57.812,29.606,28.906,28.906,0,0,0,28.906.7Z" transform="translate(0 4.462)"/>
    </g>
    <g id="SmallBubble-10" data-name="SmallBubble" transform="translate(831 3578.567)">
      <circle id="Ellipse_1-10" data-name="Ellipse 1" cx="25.956" cy="25.956" r="25.956" transform="translate(9.66)" fill="#9a1712"/>
      <path id="Path_185-10" data-name="Path 185" d="M28.906,8.074A21.532,21.532,0,1,1,7.374,29.606,21.532,21.532,0,0,1,28.906,8.074m0-7.374A28.906,28.906,0,1,0,57.812,29.606,28.906,28.906,0,0,0,28.906.7Z" transform="translate(0 4.462)"/>
    </g>
    <g id="SmallBubble-11" data-name="SmallBubble" transform="translate(923 3578.567)">
      <circle id="Ellipse_1-11" data-name="Ellipse 1" cx="25.956" cy="25.956" r="25.956" transform="translate(9.66)" fill="#9a1712"/>
      <path id="Path_185-11" data-name="Path 185" d="M28.906,8.074A21.532,21.532,0,1,1,7.374,29.606,21.532,21.532,0,0,1,28.906,8.074m0-7.374A28.906,28.906,0,1,0,57.812,29.606,28.906,28.906,0,0,0,28.906.7Z" transform="translate(0 4.462)"/>
    </g>
    <g id="SmallBubble-12" data-name="SmallBubble" transform="translate(1015 3578.567)">
      <circle id="Ellipse_1-12" data-name="Ellipse 1" cx="25.956" cy="25.956" r="25.956" transform="translate(9.66)" fill="#9a1712"/>
      <path id="Path_185-12" data-name="Path 185" d="M28.906,8.074A21.532,21.532,0,1,1,7.374,29.606,21.532,21.532,0,0,1,28.906,8.074m0-7.374A28.906,28.906,0,1,0,57.812,29.606,28.906,28.906,0,0,0,28.906.7Z" transform="translate(0 4.462)"/>
    </g>
    <g id="SmallBubble-13" data-name="SmallBubble" transform="translate(1107 3578.567)">
      <circle id="Ellipse_1-13" data-name="Ellipse 1" cx="25.956" cy="25.956" r="25.956" transform="translate(9.66)" fill="#9a1712"/>
      <path id="Path_185-13" data-name="Path 185" d="M28.906,8.074A21.532,21.532,0,1,1,7.374,29.606,21.532,21.532,0,0,1,28.906,8.074m0-7.374A28.906,28.906,0,1,0,57.812,29.606,28.906,28.906,0,0,0,28.906.7Z" transform="translate(0 4.462)"/>
    </g>
    <g id="SmallBubble-14" data-name="SmallBubble" transform="translate(1199 3578.567)">
      <circle id="Ellipse_1-14" data-name="Ellipse 1" cx="25.956" cy="25.956" r="25.956" transform="translate(9.66)" fill="#9a1712"/>
      <path id="Path_185-14" data-name="Path 185" d="M28.906,8.074A21.532,21.532,0,1,1,7.374,29.606,21.532,21.532,0,0,1,28.906,8.074m0-7.374A28.906,28.906,0,1,0,57.812,29.606,28.906,28.906,0,0,0,28.906.7Z" transform="translate(0 4.462)"/>
    </g>
    <g id="SmallBubble-15" data-name="SmallBubble" transform="translate(1291 3578.567)">
      <circle id="Ellipse_1-15" data-name="Ellipse 1" cx="25.956" cy="25.956" r="25.956" transform="translate(9.66)" fill="#9a1712"/>
      <path id="Path_185-15" data-name="Path 185" d="M28.906,8.074A21.532,21.532,0,1,1,7.374,29.606,21.532,21.532,0,0,1,28.906,8.074m0-7.374A28.906,28.906,0,1,0,57.812,29.606,28.906,28.906,0,0,0,28.906.7Z" transform="translate(0 4.462)"/>
    </g>
    <g id="SmallBubble-16" data-name="SmallBubble" transform="translate(1383 3578.567)">
      <circle id="Ellipse_1-16" data-name="Ellipse 1" cx="25.956" cy="25.956" r="25.956" transform="translate(9.66)" fill="#9a1712"/>
      <path id="Path_185-16" data-name="Path 185" d="M28.906,8.074A21.532,21.532,0,1,1,7.374,29.606,21.532,21.532,0,0,1,28.906,8.074m0-7.374A28.906,28.906,0,1,0,57.812,29.606,28.906,28.906,0,0,0,28.906.7Z" transform="translate(0 4.462)"/>
    </g>
    <g id="SmallBubble-17" data-name="SmallBubble" transform="translate(1475 3578.567)">
      <circle id="Ellipse_1-17" data-name="Ellipse 1" cx="25.956" cy="25.956" r="25.956" transform="translate(9.66)" fill="#9a1712"/>
      <path id="Path_185-17" data-name="Path 185" d="M28.906,8.074A21.532,21.532,0,1,1,7.374,29.606,21.532,21.532,0,0,1,28.906,8.074m0-7.374A28.906,28.906,0,1,0,57.812,29.606,28.906,28.906,0,0,0,28.906.7Z" transform="translate(0 4.462)"/>
    </g>
    <g id="SmallBubble-18" data-name="SmallBubble" transform="translate(1567 3578.567)">
      <circle id="Ellipse_1-18" data-name="Ellipse 1" cx="25.956" cy="25.956" r="25.956" transform="translate(9.66)" fill="#9a1712"/>
      <path id="Path_185-18" data-name="Path 185" d="M28.906,8.074A21.532,21.532,0,1,1,7.374,29.606,21.532,21.532,0,0,1,28.906,8.074m0-7.374A28.906,28.906,0,1,0,57.812,29.606,28.906,28.906,0,0,0,28.906.7Z" transform="translate(0 4.462)"/>
    </g>
    <g id="SmallBubble-19" data-name="SmallBubble" transform="translate(1659 3578.567)">
      <circle id="Ellipse_1-19" data-name="Ellipse 1" cx="25.956" cy="25.956" r="25.956" transform="translate(9.66)" fill="#9a1712"/>
      <path id="Path_185-19" data-name="Path 185" d="M28.906,8.074A21.532,21.532,0,1,1,7.374,29.606,21.532,21.532,0,0,1,28.906,8.074m0-7.374A28.906,28.906,0,1,0,57.812,29.606,28.906,28.906,0,0,0,28.906.7Z" transform="translate(0 4.462)"/>
    </g>
    <g id="SmallBubble-20" data-name="SmallBubble" transform="translate(1751 3578.567)">
      <circle id="Ellipse_1-20" data-name="Ellipse 1" cx="25.956" cy="25.956" r="25.956" transform="translate(9.66)" fill="#9a1712"/>
      <path id="Path_185-20" data-name="Path 185" d="M28.906,8.074A21.532,21.532,0,1,1,7.374,29.606,21.532,21.532,0,0,1,28.906,8.074m0-7.374A28.906,28.906,0,1,0,57.812,29.606,28.906,28.906,0,0,0,28.906.7Z" transform="translate(0 4.462)"/>
    </g>
    <g id="SmallBubble-21" data-name="SmallBubble" transform="translate(1843 3578.567)">
      <circle id="Ellipse_1-21" data-name="Ellipse 1" cx="25.956" cy="25.956" r="25.956" transform="translate(9.66)" fill="#9a1712"/>
      <path id="Path_185-21" data-name="Path 185" d="M28.906,8.074A21.532,21.532,0,1,1,7.374,29.606,21.532,21.532,0,0,1,28.906,8.074m0-7.374A28.906,28.906,0,1,0,57.812,29.606,28.906,28.906,0,0,0,28.906.7Z" transform="translate(0 4.462)"/>
    </g>
    <g id="SmallBubble-22" data-name="SmallBubble" transform="translate(-40 3468.567)">
      <circle id="Ellipse_1-22" data-name="Ellipse 1" cx="25.956" cy="25.956" r="25.956" transform="translate(9.66)" fill="#9a1712"/>
      <path id="Path_185-22" data-name="Path 185" d="M28.906,8.074A21.532,21.532,0,1,1,7.374,29.606,21.532,21.532,0,0,1,28.906,8.074m0-7.374A28.906,28.906,0,1,0,57.812,29.606,28.906,28.906,0,0,0,28.906.7Z" transform="translate(0 4.462)"/>
    </g>
    <g id="SmallBubble-23" data-name="SmallBubble" transform="translate(52 3468.567)">
      <circle id="Ellipse_1-23" data-name="Ellipse 1" cx="25.956" cy="25.956" r="25.956" transform="translate(9.66)" fill="#9a1712"/>
      <path id="Path_185-23" data-name="Path 185" d="M28.906,8.074A21.532,21.532,0,1,1,7.374,29.606,21.532,21.532,0,0,1,28.906,8.074m0-7.374A28.906,28.906,0,1,0,57.812,29.606,28.906,28.906,0,0,0,28.906.7Z" transform="translate(0 4.462)"/>
    </g>
    <g id="SmallBubble-24" data-name="SmallBubble" transform="translate(573.572 3531.54) rotate(180)">
      <circle id="Ellipse_1-24" data-name="Ellipse 1" cx="25.956" cy="25.956" r="25.956" transform="translate(9.66)" fill="#9a1712"/>
      <path id="Path_185-24" data-name="Path 185" d="M28.906,8.074A21.532,21.532,0,1,1,7.374,29.606,21.532,21.532,0,0,1,28.906,8.074m0-7.374A28.906,28.906,0,1,0,57.812,29.606,28.906,28.906,0,0,0,28.906.7Z" transform="translate(0 4.462)"/>
    </g>
    <g id="SmallBubble-25" data-name="SmallBubble" transform="translate(236 3468.567)">
      <circle id="Ellipse_1-25" data-name="Ellipse 1" cx="25.956" cy="25.956" r="25.956" transform="translate(9.66)" fill="#9a1712"/>
      <path id="Path_185-25" data-name="Path 185" d="M28.906,8.074A21.532,21.532,0,1,1,7.374,29.606,21.532,21.532,0,0,1,28.906,8.074m0-7.374A28.906,28.906,0,1,0,57.812,29.606,28.906,28.906,0,0,0,28.906.7Z" transform="translate(0 4.462)"/>
    </g>
    <g id="SmallBubble-26" data-name="SmallBubble" transform="translate(389.572 3531.54) rotate(180)">
      <circle id="Ellipse_1-26" data-name="Ellipse 1" cx="25.956" cy="25.956" r="25.956" transform="translate(9.66)" fill="#9a1712"/>
      <path id="Path_185-26" data-name="Path 185" d="M28.906,8.074A21.532,21.532,0,1,1,7.374,29.606,21.532,21.532,0,0,1,28.906,8.074m0-7.374A28.906,28.906,0,1,0,57.812,29.606,28.906,28.906,0,0,0,28.906.7Z" transform="translate(0 4.462)"/>
    </g>
    <g id="SmallBubble-27" data-name="SmallBubble" transform="translate(420 3468.567)">
      <circle id="Ellipse_1-27" data-name="Ellipse 1" cx="25.956" cy="25.956" r="25.956" transform="translate(9.66)" fill="#9a1712"/>
      <path id="Path_185-27" data-name="Path 185" d="M28.906,8.074A21.532,21.532,0,1,1,7.374,29.606,21.532,21.532,0,0,1,28.906,8.074m0-7.374A28.906,28.906,0,1,0,57.812,29.606,28.906,28.906,0,0,0,28.906.7Z" transform="translate(0 4.462)"/>
    </g>
    <g id="SmallBubble-28" data-name="SmallBubble" transform="translate(205.572 3531.54) rotate(180)">
      <circle id="Ellipse_1-28" data-name="Ellipse 1" cx="25.956" cy="25.956" r="25.956" transform="translate(9.66)" fill="#9a1712"/>
      <path id="Path_185-28" data-name="Path 185" d="M28.906,8.074A21.532,21.532,0,1,1,7.374,29.606,21.532,21.532,0,0,1,28.906,8.074m0-7.374A28.906,28.906,0,1,0,57.812,29.606,28.906,28.906,0,0,0,28.906.7Z" transform="translate(0 4.462)"/>
    </g>
    <g id="SmallBubble-29" data-name="SmallBubble" transform="translate(604 3468.567)">
      <circle id="Ellipse_1-29" data-name="Ellipse 1" cx="25.956" cy="25.956" r="25.956" transform="translate(9.66)" fill="#9a1712"/>
      <path id="Path_185-29" data-name="Path 185" d="M28.906,8.074A21.532,21.532,0,1,1,7.374,29.606,21.532,21.532,0,0,1,28.906,8.074m0-7.374A28.906,28.906,0,1,0,57.812,29.606,28.906,28.906,0,0,0,28.906.7Z" transform="translate(0 4.462)"/>
    </g>
    <g id="SmallBubble-30" data-name="SmallBubble" transform="translate(1309.572 3531.54) rotate(180)">
      <circle id="Ellipse_1-30" data-name="Ellipse 1" cx="25.956" cy="25.956" r="25.956" transform="translate(9.66)" fill="#9a1712"/>
      <path id="Path_185-30" data-name="Path 185" d="M28.906,8.074A21.532,21.532,0,1,1,7.374,29.606,21.532,21.532,0,0,1,28.906,8.074m0-7.374A28.906,28.906,0,1,0,57.812,29.606,28.906,28.906,0,0,0,28.906.7Z" transform="translate(0 4.462)"/>
    </g>
    <g id="SmallBubble-31" data-name="SmallBubble" transform="translate(788 3468.567)">
      <circle id="Ellipse_1-31" data-name="Ellipse 1" cx="25.956" cy="25.956" r="25.956" transform="translate(9.66)" fill="#9a1712"/>
      <path id="Path_185-31" data-name="Path 185" d="M28.906,8.074A21.532,21.532,0,1,1,7.374,29.606,21.532,21.532,0,0,1,28.906,8.074m0-7.374A28.906,28.906,0,1,0,57.812,29.606,28.906,28.906,0,0,0,28.906.7Z" transform="translate(0 4.462)"/>
    </g>
    <g id="SmallBubble-32" data-name="SmallBubble" transform="translate(1125.572 3531.54) rotate(180)">
      <circle id="Ellipse_1-32" data-name="Ellipse 1" cx="25.956" cy="25.956" r="25.956" transform="translate(9.66)" fill="#9a1712"/>
      <path id="Path_185-32" data-name="Path 185" d="M28.906,8.074A21.532,21.532,0,1,1,7.374,29.606,21.532,21.532,0,0,1,28.906,8.074m0-7.374A28.906,28.906,0,1,0,57.812,29.606,28.906,28.906,0,0,0,28.906.7Z" transform="translate(0 4.462)"/>
    </g>
    <g id="SmallBubble-33" data-name="SmallBubble" transform="translate(972 3468.567)">
      <circle id="Ellipse_1-33" data-name="Ellipse 1" cx="25.956" cy="25.956" r="25.956" transform="translate(9.66)" fill="#9a1712"/>
      <path id="Path_185-33" data-name="Path 185" d="M28.906,8.074A21.532,21.532,0,1,1,7.374,29.606,21.532,21.532,0,0,1,28.906,8.074m0-7.374A28.906,28.906,0,1,0,57.812,29.606,28.906,28.906,0,0,0,28.906.7Z" transform="translate(0 4.462)"/>
    </g>
    <g id="SmallBubble-34" data-name="SmallBubble" transform="translate(941.572 3531.54) rotate(180)">
      <circle id="Ellipse_1-34" data-name="Ellipse 1" cx="25.956" cy="25.956" r="25.956" transform="translate(9.66)" fill="#9a1712"/>
      <path id="Path_185-34" data-name="Path 185" d="M28.906,8.074A21.532,21.532,0,1,1,7.374,29.606,21.532,21.532,0,0,1,28.906,8.074m0-7.374A28.906,28.906,0,1,0,57.812,29.606,28.906,28.906,0,0,0,28.906.7Z" transform="translate(0 4.462)"/>
    </g>
    <g id="SmallBubble-35" data-name="SmallBubble" transform="translate(1156 3468.567)">
      <circle id="Ellipse_1-35" data-name="Ellipse 1" cx="25.956" cy="25.956" r="25.956" transform="translate(9.66)" fill="#9a1712"/>
      <path id="Path_185-35" data-name="Path 185" d="M28.906,8.074A21.532,21.532,0,1,1,7.374,29.606,21.532,21.532,0,0,1,28.906,8.074m0-7.374A28.906,28.906,0,1,0,57.812,29.606,28.906,28.906,0,0,0,28.906.7Z" transform="translate(0 4.462)"/>
    </g>
    <g id="SmallBubble-36" data-name="SmallBubble" transform="translate(757.572 3531.54) rotate(180)">
      <circle id="Ellipse_1-36" data-name="Ellipse 1" cx="25.956" cy="25.956" r="25.956" transform="translate(9.66)" fill="#9a1712"/>
      <path id="Path_185-36" data-name="Path 185" d="M28.906,8.074A21.532,21.532,0,1,1,7.374,29.606,21.532,21.532,0,0,1,28.906,8.074m0-7.374A28.906,28.906,0,1,0,57.812,29.606,28.906,28.906,0,0,0,28.906.7Z" transform="translate(0 4.462)"/>
    </g>
    <g id="SmallBubble-37" data-name="SmallBubble" transform="translate(1340 3468.567)">
      <circle id="Ellipse_1-37" data-name="Ellipse 1" cx="25.956" cy="25.956" r="25.956" transform="translate(9.66)" fill="#9a1712"/>
      <path id="Path_185-37" data-name="Path 185" d="M28.906,8.074A21.532,21.532,0,1,1,7.374,29.606,21.532,21.532,0,0,1,28.906,8.074m0-7.374A28.906,28.906,0,1,0,57.812,29.606,28.906,28.906,0,0,0,28.906.7Z" transform="translate(0 4.462)"/>
    </g>
    <g id="SmallBubble-38" data-name="SmallBubble" transform="translate(1861.572 3531.54) rotate(180)">
      <circle id="Ellipse_1-38" data-name="Ellipse 1" cx="25.956" cy="25.956" r="25.956" transform="translate(9.66)" fill="#9a1712"/>
      <path id="Path_185-38" data-name="Path 185" d="M28.906,8.074A21.532,21.532,0,1,1,7.374,29.606,21.532,21.532,0,0,1,28.906,8.074m0-7.374A28.906,28.906,0,1,0,57.812,29.606,28.906,28.906,0,0,0,28.906.7Z" transform="translate(0 4.462)"/>
    </g>
    <g id="SmallBubble-39" data-name="SmallBubble" transform="translate(1524 3468.567)">
      <circle id="Ellipse_1-39" data-name="Ellipse 1" cx="25.956" cy="25.956" r="25.956" transform="translate(9.66)" fill="#9a1712"/>
      <path id="Path_185-39" data-name="Path 185" d="M28.906,8.074A21.532,21.532,0,1,1,7.374,29.606,21.532,21.532,0,0,1,28.906,8.074m0-7.374A28.906,28.906,0,1,0,57.812,29.606,28.906,28.906,0,0,0,28.906.7Z" transform="translate(0 4.462)"/>
    </g>
    <g id="SmallBubble-40" data-name="SmallBubble" transform="translate(1677.572 3531.54) rotate(180)">
      <circle id="Ellipse_1-40" data-name="Ellipse 1" cx="25.956" cy="25.956" r="25.956" transform="translate(9.66)" fill="#9a1712"/>
      <path id="Path_185-40" data-name="Path 185" d="M28.906,8.074A21.532,21.532,0,1,1,7.374,29.606,21.532,21.532,0,0,1,28.906,8.074m0-7.374A28.906,28.906,0,1,0,57.812,29.606,28.906,28.906,0,0,0,28.906.7Z" transform="translate(0 4.462)"/>
    </g>
    <g id="SmallBubble-41" data-name="SmallBubble" transform="translate(1708 3468.567)">
      <circle id="Ellipse_1-41" data-name="Ellipse 1" cx="25.956" cy="25.956" r="25.956" transform="translate(9.66)" fill="#9a1712"/>
      <path id="Path_185-41" data-name="Path 185" d="M28.906,8.074A21.532,21.532,0,1,1,7.374,29.606,21.532,21.532,0,0,1,28.906,8.074m0-7.374A28.906,28.906,0,1,0,57.812,29.606,28.906,28.906,0,0,0,28.906.7Z" transform="translate(0 4.462)"/>
    </g>
    <g id="SmallBubble-42" data-name="SmallBubble" transform="translate(1493.572 3531.54) rotate(180)">
      <circle id="Ellipse_1-42" data-name="Ellipse 1" cx="25.956" cy="25.956" r="25.956" transform="translate(9.66)" fill="#9a1712"/>
      <path id="Path_185-42" data-name="Path 185" d="M28.906,8.074A21.532,21.532,0,1,1,7.374,29.606,21.532,21.532,0,0,1,28.906,8.074m0-7.374A28.906,28.906,0,1,0,57.812,29.606,28.906,28.906,0,0,0,28.906.7Z" transform="translate(0 4.462)"/>
    </g>
    <g id="SmallBubble-43" data-name="SmallBubble" transform="translate(1892 3468.567)">
      <circle id="Ellipse_1-43" data-name="Ellipse 1" cx="25.956" cy="25.956" r="25.956" transform="translate(9.66)" fill="#9a1712"/>
      <path id="Path_185-43" data-name="Path 185" d="M28.906,8.074A21.532,21.532,0,1,1,7.374,29.606,21.532,21.532,0,0,1,28.906,8.074m0-7.374A28.906,28.906,0,1,0,57.812,29.606,28.906,28.906,0,0,0,28.906.7Z" transform="translate(0 4.462)"/>
    </g>
    <g id="SmallBubble-44" data-name="SmallBubble" transform="translate(39 3357.567)">
      <circle id="Ellipse_1-44" data-name="Ellipse 1" cx="16.456" cy="16.456" r="16.456" transform="translate(9.66)" fill="#9a1712"/>
      <path id="Path_185-44" data-name="Path 185" d="M19.786,5.747A14.739,14.739,0,1,1,5.047,20.486,14.739,14.739,0,0,1,19.786,5.747m0-5.047A19.786,19.786,0,1,0,39.572,20.486,19.786,19.786,0,0,0,19.786.7Z" transform="translate(0 2.701)"/>
    </g>
    <g id="SmallBubble-45" data-name="SmallBubble" transform="translate(766.572 3400.54) rotate(180)">
      <circle id="Ellipse_1-45" data-name="Ellipse 1" cx="16.456" cy="16.456" r="16.456" transform="translate(9.66)" fill="#9a1712"/>
      <path id="Path_185-45" data-name="Path 185" d="M19.786,5.747A14.739,14.739,0,1,1,5.047,20.486,14.739,14.739,0,0,1,19.786,5.747m0-5.047A19.786,19.786,0,1,0,39.572,20.486,19.786,19.786,0,0,0,19.786.7Z" transform="translate(0 2.701)"/>
    </g>
    <g id="SmallBubble-46" data-name="SmallBubble" transform="translate(313 3357.567)">
      <circle id="Ellipse_1-46" data-name="Ellipse 1" cx="16.456" cy="16.456" r="16.456" transform="translate(9.66)" fill="#9a1712"/>
      <path id="Path_185-46" data-name="Path 185" d="M19.786,5.747A14.739,14.739,0,1,1,5.047,20.486,14.739,14.739,0,0,1,19.786,5.747m0-5.047A19.786,19.786,0,1,0,39.572,20.486,19.786,19.786,0,0,0,19.786.7Z" transform="translate(0 2.701)"/>
    </g>
    <g id="SmallBubble-47" data-name="SmallBubble" transform="translate(492.572 3400.54) rotate(180)">
      <circle id="Ellipse_1-47" data-name="Ellipse 1" cx="16.456" cy="16.456" r="16.456" transform="translate(9.66)" fill="#9a1712"/>
      <path id="Path_185-47" data-name="Path 185" d="M19.786,5.747A14.739,14.739,0,1,1,5.047,20.486,14.739,14.739,0,0,1,19.786,5.747m0-5.047A19.786,19.786,0,1,0,39.572,20.486,19.786,19.786,0,0,0,19.786.7Z" transform="translate(0 2.701)"/>
    </g>
    <g id="SmallBubble-48" data-name="SmallBubble" transform="translate(587 3357.567)">
      <circle id="Ellipse_1-48" data-name="Ellipse 1" cx="16.456" cy="16.456" r="16.456" transform="translate(9.66)" fill="#9a1712"/>
      <path id="Path_185-48" data-name="Path 185" d="M19.786,5.747A14.739,14.739,0,1,1,5.047,20.486,14.739,14.739,0,0,1,19.786,5.747m0-5.047A19.786,19.786,0,1,0,39.572,20.486,19.786,19.786,0,0,0,19.786.7Z" transform="translate(0 2.701)"/>
    </g>
    <g id="SmallBubble-49" data-name="SmallBubble" transform="translate(218.572 3400.54) rotate(180)">
      <circle id="Ellipse_1-49" data-name="Ellipse 1" cx="16.456" cy="16.456" r="16.456" transform="translate(9.66)" fill="#9a1712"/>
      <path id="Path_185-49" data-name="Path 185" d="M19.786,5.747A14.739,14.739,0,1,1,5.047,20.486,14.739,14.739,0,0,1,19.786,5.747m0-5.047A19.786,19.786,0,1,0,39.572,20.486,19.786,19.786,0,0,0,19.786.7Z" transform="translate(0 2.701)"/>
    </g>
    <g id="SmallBubble-50" data-name="SmallBubble" transform="translate(861 3357.567)">
      <circle id="Ellipse_1-50" data-name="Ellipse 1" cx="16.456" cy="16.456" r="16.456" transform="translate(9.66)" fill="#9a1712"/>
      <path id="Path_185-50" data-name="Path 185" d="M19.786,5.747A14.739,14.739,0,1,1,5.047,20.486,14.739,14.739,0,0,1,19.786,5.747m0-5.047A19.786,19.786,0,1,0,39.572,20.486,19.786,19.786,0,0,0,19.786.7Z" transform="translate(0 2.701)"/>
    </g>
    <g id="SmallBubble-51" data-name="SmallBubble" transform="translate(1588.572 3400.54) rotate(180)">
      <circle id="Ellipse_1-51" data-name="Ellipse 1" cx="16.456" cy="16.456" r="16.456" transform="translate(9.66)" fill="#9a1712"/>
      <path id="Path_185-51" data-name="Path 185" d="M19.786,5.747A14.739,14.739,0,1,1,5.047,20.486,14.739,14.739,0,0,1,19.786,5.747m0-5.047A19.786,19.786,0,1,0,39.572,20.486,19.786,19.786,0,0,0,19.786.7Z" transform="translate(0 2.701)"/>
    </g>
    <g id="SmallBubble-52" data-name="SmallBubble" transform="translate(1135 3357.567)">
      <circle id="Ellipse_1-52" data-name="Ellipse 1" cx="16.456" cy="16.456" r="16.456" transform="translate(9.66)" fill="#9a1712"/>
      <path id="Path_185-52" data-name="Path 185" d="M19.786,5.747A14.739,14.739,0,1,1,5.047,20.486,14.739,14.739,0,0,1,19.786,5.747m0-5.047A19.786,19.786,0,1,0,39.572,20.486,19.786,19.786,0,0,0,19.786.7Z" transform="translate(0 2.701)"/>
    </g>
    <g id="SmallBubble-53" data-name="SmallBubble" transform="translate(1314.572 3400.54) rotate(180)">
      <circle id="Ellipse_1-53" data-name="Ellipse 1" cx="16.456" cy="16.456" r="16.456" transform="translate(9.66)" fill="#9a1712"/>
      <path id="Path_185-53" data-name="Path 185" d="M19.786,5.747A14.739,14.739,0,1,1,5.047,20.486,14.739,14.739,0,0,1,19.786,5.747m0-5.047A19.786,19.786,0,1,0,39.572,20.486,19.786,19.786,0,0,0,19.786.7Z" transform="translate(0 2.701)"/>
    </g>
    <g id="SmallBubble-54" data-name="SmallBubble" transform="translate(1409 3357.567)">
      <circle id="Ellipse_1-54" data-name="Ellipse 1" cx="16.456" cy="16.456" r="16.456" transform="translate(9.66)" fill="#9a1712"/>
      <path id="Path_185-54" data-name="Path 185" d="M19.786,5.747A14.739,14.739,0,1,1,5.047,20.486,14.739,14.739,0,0,1,19.786,5.747m0-5.047A19.786,19.786,0,1,0,39.572,20.486,19.786,19.786,0,0,0,19.786.7Z" transform="translate(0 2.701)"/>
    </g>
    <g id="SmallBubble-55" data-name="SmallBubble" transform="translate(1040.572 3400.54) rotate(180)">
      <circle id="Ellipse_1-55" data-name="Ellipse 1" cx="16.456" cy="16.456" r="16.456" transform="translate(9.66)" fill="#9a1712"/>
      <path id="Path_185-55" data-name="Path 185" d="M19.786,5.747A14.739,14.739,0,1,1,5.047,20.486,14.739,14.739,0,0,1,19.786,5.747m0-5.047A19.786,19.786,0,1,0,39.572,20.486,19.786,19.786,0,0,0,19.786.7Z" transform="translate(0 2.701)"/>
    </g>
    <g id="SmallBubble-56" data-name="SmallBubble" transform="translate(1683 3357.567)">
      <circle id="Ellipse_1-56" data-name="Ellipse 1" cx="16.456" cy="16.456" r="16.456" transform="translate(9.66)" fill="#9a1712"/>
      <path id="Path_185-56" data-name="Path 185" d="M19.786,5.747A14.739,14.739,0,1,1,5.047,20.486,14.739,14.739,0,0,1,19.786,5.747m0-5.047A19.786,19.786,0,1,0,39.572,20.486,19.786,19.786,0,0,0,19.786.7Z" transform="translate(0 2.701)"/>
    </g>
    <g id="SmallBubble-57" data-name="SmallBubble" transform="translate(1848.977 3408.304) rotate(-150)">
      <circle id="Ellipse_1-57" data-name="Ellipse 1" cx="16.456" cy="16.456" r="16.456" transform="translate(9.66)" fill="#9a1712"/>
      <path id="Path_185-57" data-name="Path 185" d="M19.786,5.747A14.739,14.739,0,1,1,5.047,20.486,14.739,14.739,0,0,1,19.786,5.747m0-5.047A19.786,19.786,0,1,0,39.572,20.486,19.786,19.786,0,0,0,19.786.7Z" transform="translate(0 2.701)"/>
    </g>
  </g>
</svg>
