<svg xmlns="http://www.w3.org/2000/svg" viewBox="0 0 332.81 339.79">
    <defs>
        <style>
            .a,.d,.e,.f,.g{fill:none;stroke-miterlimit:10;}.a{stroke:#009245;stroke-width:7px;opacity:0.5;}.a,.f,.g{stroke-linecap:round;}.b{fill:#00bf20;}.c{fill:red;}.d,.e,.f,.g{stroke:#000;}.d{stroke-width:4.14px;}.e,.f{stroke-width:5px;}.g{stroke-width:4.65px;}
        </style>
    </defs>
    <path class="a" d="M241.45,224.06a7,7,0,0,0-1.67-7.85,8.32,8.32,0,0,0-4.71-2.1c-5.95-.59-11.55,4.3-12.51,10.92a12.33,12.33,0,0,0,10.82,14.12c6.3.85,12.65-2.71,15.87-8.86,6.62-12.61-1.7-31.21-17.71-39.59A39.38,39.38,0,0,0,210,186.54a38.85,38.85,0,0,0-17.37,6l1.76-1s-44.56,29.71-40.3,69.2l-.29,119.61c1.89-21.08,1.26-65.27,1.26-65.27,3.57-44.71-4.9-84.62-10.94-106.27a90.47,90.47,0,0,0-17.41-33.46c-.33-.41-.65-.78-.94-1.12-3.37-3.89-4.36-4.92-10.41-10.93-5.43-5.4-9.37-10.25-11-13.6-5-10.22-3.82-21.46,3.07-30a32.23,32.23,0,0,1,9.15-6.85c9.58-4,19.78-1.87,26.63,5.55a23.24,23.24,0,0,1,3.68,25.9c-4.47,9.19-14,13.73-22.45,10.72a12.7,12.7,0,0,1-5.91-4.22,9.49,9.49,0,0,1-2.23-3.58,11.59,11.59,0,0,1,1.18-11.12,10.11,10.11,0,0,1,11-3.89" 
        transform="translate(-92.13 -46.59)"/>
    <path class="a" d="M257.1,107.44l.79-1.33a75.79,75.79,0,0,0,4.16-8.67c4.06-10.66,3.95-21.64-.31-30.86a23.59,23.59,0,0,0-3.52-5.47,21.28,21.28,0,0,0-4.38-4.72c-8.42-6.62-18.15-8.1-27.07-4.07a28.2,28.2,0,0,0-7.8,5.93,20.82,20.82,0,0,0-3.42,20.8,21,21,0,0,0,5.95,7.78,18,18,0,0,0,12.37,3.58" 
        transform="translate(-92.13 -46.59)"/>
    <path class="a" d="M273.73,143.79a11.85,11.85,0,0,0-8.52-5,15.2,15.2,0,0,0-7.44,1.21,17.06,17.06,0,0,0-4.9,3.87,14.53,14.53,0,0,0-3.23,7.75,16.69,16.69,0,0,0,.77,8.42c.55,1.63.88,2.17,2.82,4.71a18.61,18.61,0,0,0,3.41,3.83c12.45,9.42,30.74,5.09,37.95-9a24.18,24.18,0,0,0,2.56-7.93A25.5,25.5,0,0,0,292,131.55a24.47,24.47,0,0,0-6.33-6,26.63,26.63,0,0,0-28.14-.8,43,43,0,0,0-9.91,8.66c-5.76,6.91-10,10.88-24.9,23-5.08,4.11-10.78,8.87-12.67,10.58-8.8,7.87-2.51.36-12.85,9.24" 
        transform="translate(-92.13 -46.59)"/>
    <path class="a" d="M393.24,117.16c3.4,6.44,3.52,14.37.37,22a41,41,0,0,1-6.53,9.2,35.64,35.64,0,0,1-17.56,8.78,43.18,43.18,0,0,1-16.65.14c-9.05-1.44-17.45-4.74-28.32-11.15-1.66-1-8.25-5.21-14.66-9.41-10.62-7-13.44-12.8-15.51-13.82" 
        transform="translate(-92.13 -46.59)"/>
    <path class="b" d="M398,125.57s-2.72-29.65,26.93-29.65C424.91,95.92,426.66,129.11,398,125.57Z" 
        transform="translate(-92.13 -46.59)"/>
    <path class="c" d="M100.66,373.79s-4.18,3.8,0,9.95l75.43.63c4.18-6.15,0-9.95,0-9.95" 
        transform="translate(-92.13 -46.59)"/>
    <path class="d" d="M100.75,371.87c-.45-.8-.87-2.49.52-5.54,2-4.4,18.89-56.62,18.46-59.43a5.79,5.79,0,0,1-.08-1.38c.46-4.86,1.9-21,.86-21.55s-4.25.6.57-10.39a3.23,3.23,0,0,0-.19-2.93c-1.82-3.1-.84-5.49.79-6.09,0,0,6-3.91,17.89-4.13s15.18,2.42,15.18,2.42,4.09,1.38,3.78,4.82a11.16,11.16,0,0,1-1.15,2.78c-1,1.9,2.27,9.39,2.27,9.39a3.54,3.54,0,0,1-.43,2.64,14,14,0,0,0-1.26,3.83s.65,32.07,3.18,36.39a8.93,8.93,0,0,1,1,2.31c1.4,5.51,5.83,22.06,10.13,30.67,3.47,7,4.08,10.58,4.11,12.19a3.83,3.83,0,0,1-.25,1.38,5.63,5.63,0,0,0,.3,3.48c-11.29,1.53-44.77,5.14-75.43-.29A2.9,2.9,0,0,0,100.75,371.87Z" 
        transform="translate(-92.13 -46.59)"/>
    <path class="d" d="M110.69,281.28" 
        transform="translate(-92.13 -46.59)"/>
    <path class="e" d="M138.13,109.61" 
        transform="translate(-92.13 -46.59)"/>
    <path class="e" d="M141.23,136.88" 
        transform="translate(-92.13 -46.59)"/>
    <path class="f" d="M121.78,124a8.67,8.67,0,0,0-8.29,1.29,8.4,8.4,0,0,0-2.69,2.6A11.57,11.57,0,0,0,109.62,139a9.53,9.53,0,0,0,2.22,3.59,12.71,12.71,0,0,0,5.91,4.21c8.44,3,18-1.53,22.46-10.71a23.26,23.26,0,0,0-3.68-25.9c-6.85-7.43-17-9.55-26.63-5.55a32.2,32.2,0,0,0-9.15,6.84c-6.9,8.5-8,19.74-3.07,30,1.62,3.35,5.56,8.2,11,13.6,6,6,7,7,10.41,10.94.29.33.61.71.94,1.11a90.41,90.41,0,0,1,17.4,33.47c6.05,21.64,14.51,61.56,10.94,106.27,0,0,.64,44.19-1.25,65.26" 
        transform="translate(-92.13 -46.59)"/>
    <path class="f" d="M254.4,114.93l-2.3,1.54.8-1.33a77.43,77.43,0,0,0,4.15-8.67c4.06-10.66,4-21.64-.31-30.86a24,24,0,0,0-3.51-5.47,21,21,0,0,0-4.39-4.72c-8.41-6.62-18.15-8.1-27.07-4.07a28.2,28.2,0,0,0-7.8,5.93,20.85,20.85,0,0,0-3.41,20.8,21.16,21.16,0,0,0,5.94,7.79,18.07,18.07,0,0,0,12.37,3.57" 
        transform="translate(-92.13 -46.59)"/>
    <path class="f" d="M253.26,158.49" 
        transform="translate(-92.13 -46.59)"/>
    <path class="f" d="M184.67,185.59c7.86-10.39,15.59-20.2,24.39-28.07,1.89-1.71,7.59-6.47,12.67-10.58,14.85-12.08,19.14-16.05,24.9-23a42.93,42.93,0,0,1,9.91-8.65,26.63,26.63,0,0,1,28.14.8,24.47,24.47,0,0,1,6.33,6,25.49,25.49,0,0,1,5.14,20.1,24.16,24.16,0,0,1-2.56,7.94c-7.21,14.1-25.5,18.43-37.95,9a18.61,18.61,0,0,1-3.41-3.83c-1.94-2.54-2.27-3.08-2.82-4.71a16.69,16.69,0,0,1-.77-8.42,14.53,14.53,0,0,1,3.23-7.75,17.06,17.06,0,0,1,4.9-3.87,15.2,15.2,0,0,1,7.44-1.21,11.84,11.84,0,0,1,8.52,5c1.56,2.05,1.61,1.64.06-.48" 
        transform="translate(-92.13 -46.59)"/>
    <path class="f" d="M234.76,215.84a7,7,0,0,0-1.67-7.85,8.24,8.24,0,0,0-4.71-2.09c-5.95-.59-11.56,4.29-12.51,10.91a12.35,12.35,0,0,0,10.82,14.13c6.29.84,12.64-2.71,15.87-8.87,6.62-12.61-1.7-31.21-17.71-39.59a39.47,39.47,0,0,0-21.54-4.16,38.75,38.75,0,0,0-17.37,6" 
        transform="translate(-92.13 -46.59)"/>
    <path class="f" d="M390.07,109.07c3.4,6.44,3.52,14.37.37,22a41.38,41.38,0,0,1-6.54,9.2,35.68,35.68,0,0,1-17.56,8.78,43.19,43.19,0,0,1-16.65.13c-9-1.44-17.44-4.73-28.31-11.14-1.67-1-8.25-5.21-14.66-9.41-10.63-7-15.6-7.81-17.67-8.83" 
        transform="translate(-92.13 -46.59)"/>
    <path class="f" d="M257,69.13" 
        transform="translate(-92.13 -46.59)"/>
    <path class="f" d="M259.53,84.77" 
        transform="translate(-92.13 -46.59)"/>
    <path class="f" d="M395.08,121.22S392.36,91.57,422,91.57C422,91.57,423.76,124.76,395.08,121.22Z" 
        transform="translate(-92.13 -46.59)"/>
    <path class="f" d="M259.91,88" 
        transform="translate(-92.13 -46.59)"/>
    <path class="f" d="M187.7,183.3S143.14,213,147.4,252.49" 
        transform="translate(-92.13 -46.59)"/>
    <line class="f" 
        x1="302.95" 
        y1="74.63" 
        x2="316.4" 
        y2="59.94"/>
    <path class="g" 
        d="M101.25,372.1s-4.18,3.8,0,9.95" 
        transform="translate(-92.13 -46.59)"/>
    <path class="g" 
        d="M177,374.1s4.18,3.81,0,10" 
        transform="translate(-92.13 -46.59)"/>
</svg>