<svg xmlns="http://www.w3.org/2000/svg" width="173.836" height="165.541" viewBox="0 0 173.836 165.541">
  <g id="Group_2" data-name="Group 2" transform="translate(-1440 -2965.919)">
    <path id="Asset_1" data-name="Asset 1" d="M152.868,43.319v-1.5a.113.113,0,0,0,0-.06,3.205,3.205,0,0,0,0-.466v-.919a12.157,12.157,0,0,0-.148-1.444c-.057-.477-.114-.812-.182-1.194s-.125-.764-.194-1.194-.148-.764-.228-1.194c-.216-1-.478-1.993-.763-2.984h0q-.456-1.5-1.059-2.972c-.4-.979-.843-1.946-1.333-2.889-.182-.358-.387-.716-.592-1.074s-.273-.5-.433-.74-.319-.537-.5-.8A16.24,16.24,0,0,0,146.3,22.25c-.433-.537-.683-.907-1.037-1.361l-.273-.346v-.072l-.216-.251a.815.815,0,0,0-.125-.155l-.308-.358-.182-.215-.125-.131-.08-.1-.114-.131-.194-.227h0c-.194-.2-.376-.406-.57-.585l-.308-.334-.182-.179-.182-.179-.125-.119-.262-.263-.239-.239h0l-.068-.06-.57-.537L141,16.294h0c-.433-.406-.866-.788-1.321-1.194a14.344,14.344,0,0,0-1.549-1.194c-.524-.346-1.059-.776-1.606-1.194-1.139-.74-2.2-1.421-3.338-2.053-.866-.466-1.731-.907-2.62-1.313s-1.674-.776-2.529-1.11c-.5-.2-1-.394-1.515-.573l-1.538-.5-.228-.072-.695-.215-.968-.3-.547-.155-.991-.275A174.95,174.95,0,0,0,35.313,4.7c-.535.119-1.059.251-1.583.394-1.059.3-2.107.633-3.144,1.015l-1.139.418-.752.3c-1.344.537-2.643,1.122-3.9,1.719-.991.454-1.948.931-2.859,1.409l-2.176,1.134h0l-1.025.549-1.207.645-1.344.7-.627.31-.592.286-.547.263A50.415,50.415,0,0,0,9.444,20.03q-.592.883-1.139,1.791a42.212,42.212,0,0,0-2.1,3.689c-.308.6-.6,1.194-.877,1.791s-.4.883-.592,1.325-.456,1.05-.661,1.588-.421,1.062-.615,1.6C-2.767,49.073-.478,69.234,9.33,83.559c10.4,15.124,20.8,30.284,30.676,45.791a140.07,140.07,0,0,1,15.173,31.43l43.286.37c7.848-24.686,21.119-46.3,35.426-67.325,7.974-11.7,15.777-23.325,18.055-37.96.125-.8.239-1.6.342-2.387s.159-1.194.216-1.85c.1-.931.194-1.862.251-2.793s.114-1.85.137-2.769V44.692C152.891,44.238,152.879,43.773,152.868,43.319ZM136.454,54.062c-.114.286-.251.561-.387.836l-2.073,4.082q-1.948,3.856-3.919,7.7-3.03,5.909-6.06,11.794t-6.06,11.758l-3.03,5.885c-1,1.958-2,3.927-3.019,5.885-1.731,3.378-4.294,3.951-7.108,2.113-7.119-4.655-13.9-5-21.153,0a12.441,12.441,0,0,1-11.106,1.647l-.57-.179a15.585,15.585,0,0,1-1.5-.573h0l-.888-.406a22.472,22.472,0,0,1-2.586-1.468c-6.094-3.975-11.835-3.772-17.519.215-4.26,2.984-6.949,1.647-9.113-2.626l-3.11-5.969C31.679,84.1,26.1,73.46,20.618,62.776l-3.041-5.909q-.15-.273-.273-.561c-.08-.179-.171-.37-.251-.561s-.308-.74-.444-1.122-.171-.5-.251-.764a16.638,16.638,0,0,1,0-9.86,14.9,14.9,0,0,1,.706-1.791h0a15.519,15.519,0,0,1,6-6.709A75.951,75.951,0,0,1,44.4,26.213c26.1-6.183,51.977-4.775,77.151,5.169,4.363,1.779,8.236,4.775,12.336,7.162a20.417,20.417,0,0,1,2.54,4.082c.091.191.182.394.262.585s.182.454.262.68.182.513.262.776a13.267,13.267,0,0,1-.763,9.418Z" transform="translate(1458.005 2966.31)" fill="#f40009" opacity="0.5"/>
    <g id="bottleAsset_1" data-name="bottleAsset 1" transform="translate(1439.995 2920.02)">
      <path id="Path_125" data-name="Path 125" d="M150.528,102.366c1.161-11.3-1.161-22.98-8.268-35.2a52.533,52.533,0,0,1,8.268,35.2Z" transform="translate(22.931 3.429)"/>
      <path id="Path_126" data-name="Path 126" d="M165.191,70.6c-3.391-4.645-3.855-5.156-7.4-7.385C119.9,41.046,79.576,43.578,38.876,52.008c-6.967,1.428-13.249,5.806-19.845,8.744L10,69.774c-1,1.846-2.09,3.658-2.984,5.551-11.809,24.954-8.349,47.981,7.78,70.1,12.018,16.477,23.6,33.361,34.2,50.779a97.659,97.659,0,0,1,7.362,14.7l9.1.081a133.6,133.6,0,0,0-15.467-30.574c-10.068-15.1-20.669-29.831-31.271-44.543C4.9,116.687,5.712,86.461,23.978,68.079c4.436-1.916,12.518-6.967,21.285-8.906a186.639,186.639,0,0,1,87.879,1.393c9.29,2.322,17.708,6.758,24,14.329,8.372,10.068,8.988,21.8,6.967,34.035-2.322,14.236-10.311,25.546-18.4,36.926-14.585,20.46-28.124,41.49-36.125,65.515l9.011.07c.5-1.428,1.033-2.857,1.591-4.285,8.918-22.9,22.829-42.825,36.845-62.7.627-.894,1.242-1.788,1.835-2.682,7.478-11.182,12.773-22.98,14.422-34.964,0-.325.093-.65.116-.975a52.532,52.532,0,0,0-8.21-35.231Z" transform="translate(0 0)"/>
      <path id="Path_129" data-name="Path 129" d="M142.175,87.827c-4.18-2.322-8.128-5.237-12.576-6.967-25.662-9.684-52.045-11.043-78.648-5.028A79.286,79.286,0,0,0,29.2,84.866c-7.617,4.517-9.545,13.331-5.551,20.774,7.617,14.283,15.456,28.449,23.224,42.686,2.253,4.157,4.993,5.458,9.29,2.555,5.806-3.878,11.612-4.076,17.859-.209,5.272,3.3,11.4,4.645,16.988.964,7.4-4.877,14.306-4.54,21.563,0,2.868,1.788,5.481,1.231,7.246-2.055,8.2-15.281,16.535-30.481,24.629-45.821C147.4,98.2,146.367,92.925,142.175,87.827Zm-5.353,12.239c-7.35,14.143-15.1,28.136-22.9,42.674-9.162-5.5-17.511-3.9-26.069.743-2.322,1.289-6.677,1.08-9.127-.244-8.221-4.459-16.257-6.073-25.047-.418-5.469-10.044-10.671-19.636-15.908-29.2-1.661-3.042-3.484-6.038-5.074-9.081-3.867-7.13-2.508-11.089,4.97-14.794,16.257-8.128,33.86-9.766,51.441-8.268,12.773,1.08,25.3,4.714,37.82,7.71,3.193.755,6.224,3.077,8.732,5.341a6,6,0,0,1,1.161,5.539Z" transform="translate(3.485 4.242)"/>
    </g>
  </g>
</svg>
